# xmcd
#
# Track frame offsets: 
#        150
#        20160
#        36554
#        52365
#        69998
#        87688
#        105272
#        120297
#        133643
#        145658
#        160797
#        175462
#        189369
#        205981
#        221976
#        235378
#        251020
#        263704
#        281186
#
# Disc length: 4025 seconds
#
# Revision: 0
# Processed by: cddbd v1.5.2PL0 Copyright (c) Steve Scherf et al.
# Submitted via: ExactAudioCopyFreeDBPlugin 1.0
#
DISCID=290fb713
DTITLE=Johnny Cash - American IV - The Man comes around
DYEAR=2002
DGENRE=Folk/Rock
TTITLE0=The Man Comes Around
TTITLE1=Hurt
TTITLE2=Give My Love To Rose
TTITLE3=Bridge Over Trouble Water
TTITLE4=I Hung My Head
TTITLE5=The First Time Ever I Saw Your Face
TTITLE6=Personal Jesus
TTITLE7=In My Life
TTITLE8=Sam Hall
TTITLE9=Danny Boy
TTITLE10=Desperado
TTITLE11=I'm So Lonesome
TTITLE12=Tear Stained Letter
TTITLE13=Streets Of Laredo
TTITLE14=We'll Meet Again
TTITLE15=Delia's Gone
TTITLE16=Tennessee Stud
TTITLE17=The Man Who Couldn't Cry
TTITLE18=The Beast In Me
EXTD=
EXTT0=
EXTT1=
EXTT2=
EXTT3=
EXTT4=
EXTT5=
EXTT6=
EXTT7=
EXTT8=
EXTT9=
EXTT10=
EXTT11=
EXTT12=
EXTT13=
EXTT14=
EXTT15=
EXTT16=
EXTT17=
EXTT18=
PLAYORDER=
